<svg width="327" height="88" viewBox="0 0 327 88" fill="none" xmlns="http://www.w3.org/2000/svg">
<path d="M12.3582 87.5312C9.92073 87.5938 7.92073 87.1562 6.35823 86.2188C4.73323 85.2812 3.48323 83.9062 2.60823 82.0938C1.67073 80.3438 1.07698 78.1875 0.826981 75.625C0.576981 73.125 0.576981 70.375 0.826981 67.375C1.13948 65.0625 1.70198 62.6562 2.51448 60.1562C3.20198 58.0312 4.26448 55.6875 5.70198 53.125C7.07698 50.5625 8.95198 48.0625 11.327 45.625C11.827 45.75 12.2332 45.9062 12.5457 46.0938C12.8582 46.2188 13.1082 46.375 13.2957 46.5625C13.4832 46.8125 13.6082 47.0312 13.6707 47.2188C13.7957 47.9062 13.6082 48.6875 13.1082 49.5625C12.6082 50.4375 12.1082 51.375 11.6082 52.375C10.2332 55.25 9.20198 57.9688 8.51448 60.5312C7.82698 63.0938 7.38948 65.4688 7.20198 67.6562C7.07698 69.5312 7.10823 71.2188 7.29573 72.7188C7.42073 74.2812 7.63948 75.5938 7.95198 76.6562C8.26448 77.7812 8.60823 78.625 8.98323 79.1875C9.35823 79.8125 9.70198 80.125 10.0145 80.125C10.327 80.125 10.6395 79.9062 10.952 79.4688C11.327 79.0312 11.6707 78.5 11.9832 77.875C12.3582 77.25 12.7957 76.2812 13.2957 74.9688C13.7957 73.7188 14.327 72.25 14.8895 70.5625C15.452 68.875 15.9832 67.0625 16.4832 65.125C17.0457 63.125 17.5457 61.125 17.9832 59.125C18.8582 55.125 19.7957 50.625 20.7957 45.625C21.7957 40.5625 23.2645 35.2812 25.202 29.7812C25.827 27.4688 26.6082 24.9375 27.5457 22.1875C28.2957 19.8125 29.2332 17.0625 30.3582 13.9375C31.5457 10.75 32.8895 7.3125 34.3895 3.625C34.3895 3.3125 34.6395 3.03125 35.1395 2.78125C35.702 2.46875 36.327 2.15625 37.0145 1.84375C37.7645 1.53125 38.6082 1.21875 39.5457 0.90625C40.7957 0.46875 41.7645 0.21875 42.452 0.15625C43.202 0.09375 43.7645 0.1875 44.1395 0.4375C44.5145 0.6875 44.7645 1.03125 44.8895 1.46875C45.0145 1.84375 45.077 2.28125 45.077 2.78125C45.202 4.84375 45.2645 6.78125 45.2645 8.59375C45.327 10.4063 45.3895 12 45.452 13.375C45.5145 15 45.5457 16.4688 45.5457 17.7812C45.6082 19.5312 45.5145 21.875 45.2645 24.8125C45.0145 27.6875 44.7332 30.7188 44.4207 33.9062C44.1707 37.0938 43.9207 40.2188 43.6707 43.2812C43.4832 46.2812 43.452 48.7812 43.577 50.7812C43.577 51.8438 43.6082 52.8438 43.6707 53.7812C43.7957 54.6562 43.9207 55.5312 44.0457 56.4062C44.8582 54.1562 45.7645 51.8125 46.7645 49.375C47.7645 46.875 48.7645 44.5 49.7645 42.25C50.7645 39.9375 51.702 37.8125 52.577 35.875C53.452 33.875 54.1395 32.2188 54.6395 30.9062C55.3895 29.1562 56.3895 26.9375 57.6395 24.25C58.8895 21.5625 60.1395 18.875 61.3895 16.1875C62.702 13.5 63.8895 11.0312 64.952 8.78125C66.077 6.53125 66.8895 4.96875 67.3895 4.09375C67.7645 3.46875 68.3895 2.90625 69.2645 2.40625C70.202 1.90625 71.1707 1.46875 72.1707 1.09375C73.2332 0.71875 74.202 0.46875 75.077 0.34375C76.0145 0.15625 76.6395 0.125 76.952 0.25C77.7645 0.4375 78.327 0.6875 78.6395 1C79.0145 1.3125 79.2332 1.53125 79.2957 1.65625C79.4207 1.90625 79.5145 2.34375 79.577 2.96875C79.6395 3.53125 79.6082 4.4375 79.4832 5.6875C79.3582 7.1875 78.9832 9.46875 78.3582 12.5312C77.7957 15.5938 77.077 19.0938 76.202 23.0312C75.3895 26.9062 74.4832 31.0625 73.4832 35.5C72.5457 39.9375 71.6395 44.3125 70.7645 48.625C69.8895 52.875 69.1082 56.875 68.4207 60.625C67.7957 64.375 67.3895 67.5312 67.202 70.0938C67.077 72.9688 67.2645 75.5 67.7645 77.6875C67.952 78.625 68.2332 79.5312 68.6082 80.4062C68.9832 81.2812 69.4832 82.0312 70.1082 82.6562C70.7332 83.3438 71.4832 83.8438 72.3582 84.1562C73.2332 84.4688 74.2645 84.5625 75.452 84.4375C73.8895 85.5 72.3582 86.2812 70.8582 86.7812C69.3582 87.2812 67.8895 87.5312 66.452 87.5312C64.8895 87.5938 63.5145 87.3438 62.327 86.7812C61.1395 86.2812 60.1395 85.5312 59.327 84.5312C58.5145 83.5938 57.9207 82.4375 57.5457 81.0625C57.1707 79.75 57.0457 78.2812 57.1707 76.6562C57.2957 75.1562 57.702 72.6875 58.3895 69.25C59.077 65.8125 59.8895 61.9375 60.827 57.625C61.827 53.25 62.8895 48.7188 64.0145 44.0312C65.202 39.2812 66.2957 34.8438 67.2957 30.7188C68.3582 26.5312 69.2645 22.9375 70.0145 19.9375C70.7645 16.9375 71.2332 14.9688 71.4207 14.0312C71.5457 13.2812 71.6395 12.5938 71.702 11.9688C71.827 11.2812 71.952 10.6875 72.077 10.1875C71.452 11.4375 70.6707 12.9375 69.7332 14.6875C68.8582 16.4375 67.9207 18.3125 66.9207 20.3125C65.9207 22.3125 64.8895 24.4062 63.827 26.5938C62.827 28.7188 61.8582 30.7812 60.9207 32.7812C59.3582 36.0312 57.827 39.375 56.327 42.8125C54.827 46.1875 53.4832 49.4062 52.2957 52.4688C51.1082 55.5312 50.1082 58.2812 49.2957 60.7188C48.5457 63.1562 48.1082 65.0312 47.9832 66.3438V67.6562C47.9832 68.0312 47.9832 68.4688 47.9832 68.9688C48.0457 69.4688 48.1395 69.9375 48.2645 70.375L44.5145 73.2812C43.952 73.4688 43.452 73.625 43.0145 73.75C42.6395 73.875 42.2645 73.9375 41.8895 73.9375C40.452 73.9375 39.3582 73.1875 38.6082 71.6875C37.8582 70.3125 37.1707 67.625 36.5457 63.625C35.9207 59.625 35.7332 54.7188 35.9832 48.9062C36.1082 46.0312 36.2957 43.125 36.5457 40.1875C36.8582 37.25 37.1395 34.4375 37.3895 31.75C37.702 29.0625 37.9832 26.5625 38.2332 24.25C38.4832 21.875 38.6082 19.8438 38.6082 18.1562C38.6707 16.9062 38.6395 15.7812 38.5145 14.7812C38.3895 13.7188 38.2645 12.75 38.1395 11.875C37.577 13.3125 36.952 15.2812 36.2645 17.7812C35.577 20.2188 34.8582 22.9375 34.1082 25.9375C33.3582 28.9375 32.577 32.0938 31.7645 35.4062C31.0145 38.7188 30.2645 41.9062 29.5145 44.9688C28.827 48.0312 28.1707 50.875 27.5457 53.5C26.9207 56.0625 26.4207 58.125 26.0457 59.6875C25.4207 62.1875 24.7957 65.0312 24.1707 68.2188C23.5457 71.4062 22.7645 74.4062 21.827 77.2188C20.8895 80.0938 19.6707 82.5 18.1707 84.4375C16.6707 86.4375 14.7332 87.4688 12.3582 87.5312ZM128.409 51.3438C127.534 52.5938 126.409 54.1562 125.034 56.0312C123.659 57.8438 122.222 59.6875 120.722 61.5625C119.284 63.375 117.847 65.0625 116.409 66.625C115.034 68.125 113.878 69.1875 112.941 69.8125C112.316 70.1875 111.597 70.5 110.784 70.75C109.972 71 109.128 71.1562 108.253 71.2188C107.441 71.2812 106.659 71.2188 105.909 71.0312C105.159 70.9062 104.503 70.6562 103.941 70.2812C103.378 69.8438 102.909 69.2188 102.534 68.4062C102.222 67.7188 101.909 66.8125 101.597 65.6875C101.347 64.5625 101.253 63.1562 101.316 61.4688C99.8155 63.9688 98.1593 65.9062 96.3468 67.2812C94.5343 68.5938 92.8155 69.5625 91.1905 70.1875C89.3155 70.875 87.4405 71.2812 85.5655 71.4062C84.6905 71.4062 83.753 71.0938 82.753 70.4688C81.753 69.9062 80.9093 69 80.2218 67.75C79.5343 66.4375 79.0968 64.7812 78.9093 62.7812C78.7218 60.7188 78.9718 58.2812 79.6593 55.4688C80.5343 51.6562 81.9093 48.1875 83.7843 45.0625C85.7218 41.9375 87.8155 39.2812 90.0655 37.0938C92.3155 34.8438 94.5343 33.1562 96.7218 32.0312C98.9093 30.9062 100.722 30.4062 102.159 30.5312C103.847 30.8438 105.222 31.3438 106.284 32.0312C107.159 32.6562 107.722 33.5938 107.972 34.8438C108.284 36.0312 107.784 37.625 106.472 39.625C107.347 39.4375 108.066 39.3125 108.628 39.25C109.253 39.1875 109.722 39.1562 110.034 39.1562C110.409 39.1562 110.659 39.1875 110.784 39.25C110.847 39.375 110.878 39.6562 110.878 40.0938C110.878 40.4688 110.784 41.1875 110.597 42.25C110.409 43.3125 110.128 44.75 109.753 46.5625C109.378 48.375 108.878 50.7188 108.253 53.5938C108.128 54.1562 108.003 54.6875 107.878 55.1875C107.816 55.625 107.722 56.0938 107.597 56.5938C107.534 57.0312 107.441 57.5625 107.316 58.1875C107.191 58.8125 107.034 59.5938 106.847 60.5312C106.784 61.0938 106.753 61.7188 106.753 62.4062C106.816 63.0312 106.941 63.625 107.128 64.1875C107.316 64.75 107.597 65.2188 107.972 65.5938C108.409 65.9062 109.003 66.0625 109.753 66.0625C110.378 66.0625 111.191 65.6875 112.191 64.9375C113.191 64.125 114.253 63.125 115.378 61.9375C116.503 60.6875 117.659 59.3438 118.847 57.9062C120.097 56.4062 121.253 54.9688 122.316 53.5938C123.378 52.2188 124.316 51 125.128 49.9375C126.003 48.875 126.628 48.0938 127.003 47.5938C127.503 47.0312 128.003 46.7188 128.503 46.6562C129.003 46.5312 129.378 46.6562 129.628 47.0312C129.878 47.4062 129.909 47.9688 129.722 48.7188C129.597 49.4688 129.159 50.3438 128.409 51.3438ZM100.941 55.4688C101.253 54.2188 101.628 52.75 102.066 51.0625C102.503 49.375 102.878 47.75 103.191 46.1875C103.503 44.625 103.722 43.3438 103.847 42.3438C104.034 41.2812 104.003 40.7812 103.753 40.8438C103.441 40.9062 103.097 41 102.722 41.125C102.409 41.25 102.003 41.3438 101.503 41.4062C101.003 41.4688 100.503 41.5625 100.003 41.6875C100.503 40.6875 100.784 39.875 100.847 39.25C100.972 38.5625 101.003 38.0312 100.941 37.6562C100.878 37.2188 100.753 36.875 100.566 36.625C99.878 36.0625 98.6593 36.5312 96.9093 38.0312C95.2218 39.4688 93.253 42.1562 91.003 46.0938C90.0655 47.7188 89.3155 49.4688 88.753 51.3438C88.1905 53.1562 87.7843 54.875 87.5343 56.5C87.3468 58.125 87.3155 59.5625 87.4405 60.8125C87.5655 62 87.8155 62.7812 88.1905 63.1562C88.878 63.8438 89.6593 64.1875 90.5343 64.1875C91.4093 64.125 92.2843 63.875 93.1593 63.4375C94.0968 62.9375 95.003 62.3125 95.878 61.5625C96.8155 60.8125 97.628 60.0312 98.3155 59.2188C99.0655 58.4062 99.6593 57.6562 100.097 56.9688C100.597 56.2812 100.878 55.7812 100.941 55.4688ZM135.054 66.8125C135.429 67.0625 135.898 67.1875 136.46 67.1875C137.085 67.1875 137.679 67.0625 138.242 66.8125C138.867 66.5625 139.429 66.2188 139.929 65.7812C140.492 65.3438 140.898 64.7812 141.148 64.0938C141.398 63.4062 141.398 62.4375 141.148 61.1875C140.898 59.875 140.492 58.5 139.929 57.0625C139.429 55.5625 138.867 54.0625 138.242 52.5625C137.617 51.0625 137.085 49.6875 136.648 48.4375C136.273 47.5 135.96 46.625 135.71 45.8125C135.46 45.125 135.21 44.4688 134.96 43.8438C134.773 43.1562 134.617 42.6875 134.492 42.4375C134.179 42.9375 133.617 43.75 132.804 44.875C132.054 46 131.21 47.1875 130.273 48.4375C129.398 49.625 128.554 50.75 127.742 51.8125C126.929 52.8125 126.367 53.5 126.054 53.875C125.554 54.4375 125.054 54.7812 124.554 54.9062C124.117 54.9688 123.742 54.875 123.429 54.625C123.117 54.3125 122.929 53.9062 122.867 53.4062C122.867 52.8438 123.117 52.1875 123.617 51.4375C123.992 50.9375 124.554 50.1562 125.304 49.0938C126.054 47.9688 126.804 46.8438 127.554 45.7188C128.304 44.5312 128.992 43.5 129.617 42.625C130.242 41.6875 130.585 41.125 130.648 40.9375C130.773 40.4375 130.585 39.7812 130.085 38.9688C129.648 38.1562 129.585 37.2188 129.898 36.1562C130.148 35.2812 130.71 34.2812 131.585 33.1562C132.46 31.9688 133.492 30.9062 134.679 29.9688C135.867 29.0312 137.085 28.3438 138.335 27.9062C139.585 27.4062 140.71 27.4062 141.71 27.9062C142.523 28.4062 143.179 28.9688 143.679 29.5938C144.179 30.1562 144.367 30.75 144.242 31.375C144.117 31.6875 143.929 32.0938 143.679 32.5938C143.429 33.0938 143.054 33.7188 142.554 34.4688C142.054 35.1562 141.335 36.0625 140.398 37.1875C140.585 38.625 140.835 39.9375 141.148 41.125C141.523 42.3125 141.867 43.3438 142.179 44.2188C142.554 45.2812 142.96 46.25 143.398 47.125C143.96 48.25 144.554 49.4062 145.179 50.5938C145.804 51.7812 146.367 52.9688 146.867 54.1562C147.367 55.2812 147.773 56.3438 148.085 57.3438C148.398 58.3438 148.492 59.1875 148.367 59.875C148.179 60.9375 147.617 62.2188 146.679 63.7188C145.804 65.2188 144.679 66.6875 143.304 68.125C141.992 69.5 140.46 70.6875 138.71 71.6875C137.023 72.6875 135.242 73.1875 133.367 73.1875C132.054 73.1875 130.773 72.7812 129.523 71.9688C128.335 71.1562 127.304 70.2188 126.429 69.1562C125.617 68.0312 124.992 66.9375 124.554 65.875C124.179 64.8125 124.148 64 124.46 63.4375C124.835 62.6875 125.179 62.0938 125.492 61.6562C125.804 61.2188 126.273 60.7188 126.898 60.1562C127.148 59.9688 127.46 59.75 127.835 59.5C128.148 59.3125 128.585 59.125 129.148 58.9375C129.71 58.75 130.367 58.5312 131.117 58.2812C131.742 60.2188 132.304 61.75 132.804 62.875C133.304 63.9375 133.71 64.7812 134.023 65.4062C134.398 66.0938 134.742 66.5625 135.054 66.8125ZM189.886 46.2812C190.136 45.9062 190.449 45.6875 190.824 45.625C191.261 45.5 191.605 45.5312 191.855 45.7188C192.105 45.9062 192.23 46.2188 192.23 46.6562C192.293 47.0938 192.136 47.6875 191.761 48.4375C190.511 50.8125 188.855 53.375 186.793 56.125C184.793 58.875 182.668 61.4688 180.418 63.9062C178.168 66.2812 175.98 68.25 173.855 69.8125C171.73 71.375 169.949 72.1562 168.511 72.1562C166.449 72.1562 164.73 71.75 163.355 70.9375C161.98 70.125 160.886 69.125 160.074 67.9375C159.324 66.75 158.793 65.4688 158.48 64.0938C158.168 62.6562 158.074 61.3438 158.199 60.1562C158.261 59.1562 158.48 57.375 158.855 54.8125C159.23 52.1875 159.73 49.1875 160.355 45.8125C160.98 42.375 161.668 38.7188 162.418 34.8438C163.23 30.9062 164.074 27.125 164.949 23.5C163.886 23.625 162.824 23.75 161.761 23.875C160.699 24 159.73 24.0625 158.855 24.0625C156.855 24.0625 154.98 23.8438 153.23 23.4062C151.418 22.9062 150.074 22.4375 149.199 22C148.699 21.75 148.48 21.4062 148.543 20.9688C148.605 20.4688 148.793 20 149.105 19.5625C149.418 19.0625 149.824 18.6562 150.324 18.3438C150.761 17.9688 151.168 17.7812 151.543 17.7812C152.73 17.9062 154.011 18.0312 155.386 18.1562C156.761 18.2188 158.261 18.2188 159.886 18.1562C161.074 18.0938 162.199 18 163.261 17.875C164.386 17.75 165.48 17.5938 166.543 17.4062C167.355 14.4062 168.136 11.8125 168.886 9.625C169.699 7.375 170.418 5.8125 171.043 4.9375C171.23 4.625 171.636 4.375 172.261 4.1875C172.949 3.9375 173.668 3.78125 174.418 3.71875C175.168 3.59375 175.886 3.59375 176.574 3.71875C177.261 3.78125 177.761 4 178.074 4.375C178.386 4.875 178.511 6.15625 178.449 8.21875C178.386 10.2812 178.043 12.9062 177.418 16.0938C180.043 16.0938 182.355 16.25 184.355 16.5625C186.418 16.8125 188.168 17.125 189.605 17.5C191.043 17.8125 192.199 18.1562 193.074 18.5312C193.949 18.8438 194.605 19.0625 195.043 19.1875C195.48 19.3125 195.699 19.625 195.699 20.125C195.761 20.625 195.668 21.1562 195.418 21.7188C195.23 22.2188 194.886 22.6562 194.386 23.0312C193.886 23.4062 193.324 23.5312 192.699 23.4062C192.074 23.3438 191.355 23.2188 190.543 23.0312C189.793 22.8438 188.855 22.6875 187.73 22.5625C186.668 22.4375 185.386 22.3125 183.886 22.1875C182.386 22.0625 180.636 22 178.636 22C178.261 22 177.824 22.0312 177.324 22.0938C176.886 22.0938 176.418 22.0938 175.918 22.0938C175.668 23.0938 175.418 24.0938 175.168 25.0938C174.98 26.0312 174.699 27.0312 174.324 28.0938C173.511 30.5938 172.574 33.3125 171.511 36.25C170.574 38.8125 169.449 41.75 168.136 45.0625C166.824 48.375 165.355 51.9062 163.73 55.6562C163.355 58.3438 163.386 60.4062 163.824 61.8438C164.324 63.2188 164.918 64.2188 165.605 64.8438C166.418 65.5312 167.418 65.9062 168.605 65.9688C169.543 66.0938 170.668 65.7812 171.98 65.0312C173.355 64.2188 174.761 63.1562 176.199 61.8438C177.636 60.5312 179.074 59.0938 180.511 57.5312C182.011 55.9688 183.386 54.4375 184.636 52.9375C185.886 51.4375 186.98 50.0938 187.918 48.9062C188.855 47.6562 189.511 46.7812 189.886 46.2812ZM204.594 14.7812C204.406 15.4688 204.031 16.1562 203.469 16.8438C202.969 17.4688 202.375 18 201.688 18.4375C201.062 18.8125 200.406 19.0625 199.719 19.1875C199.031 19.3125 198.469 19.1875 198.031 18.8125C196.719 17.8125 196.031 16.75 195.969 15.625C195.906 14.4375 196.188 13.3438 196.812 12.3438C197.438 11.2812 198.219 10.4063 199.156 9.71875C200.094 8.96875 200.906 8.53125 201.594 8.40625C202.281 8.28125 202.844 8.4375 203.281 8.875C203.781 9.25 204.156 9.78125 204.406 10.4688C204.656 11.0937 204.781 11.8125 204.781 12.625C204.844 13.4375 204.781 14.1562 204.594 14.7812ZM191.656 34.75C191.969 34.375 192.562 34.0625 193.438 33.8125C194.312 33.5625 195.219 33.375 196.156 33.25C197.094 33.0625 197.938 32.9688 198.688 32.9688C199.5 32.9062 199.969 32.9062 200.094 32.9688C200.156 33.0312 200 33.6875 199.625 34.9375C199.25 36.1875 198.781 37.6562 198.219 39.3438C197.656 41.0312 197.062 42.7812 196.438 44.5938C195.812 46.3438 195.344 47.7812 195.031 48.9062C194.719 50.0312 194.344 51.3125 193.906 52.75C193.469 54.125 193.062 55.5 192.688 56.875C192.375 58.1875 192.156 59.4375 192.031 60.625C191.906 61.8125 192 62.7188 192.312 63.3438C192.625 64.0938 192.969 64.625 193.344 64.9375C193.719 65.1875 194.125 65.3125 194.562 65.3125C195.812 65.3125 197.375 64.625 199.25 63.25C201.188 61.875 203.125 60.25 205.062 58.375C207.062 56.4375 208.906 54.5 210.594 52.5625C212.281 50.5625 213.531 48.9688 214.344 47.7812C214.844 47.1562 215.344 46.75 215.844 46.5625C216.406 46.375 216.844 46.4062 217.156 46.6562C217.531 46.9062 217.719 47.3125 217.719 47.875C217.781 48.4375 217.594 49.0938 217.156 49.8438C216.156 51.5938 214.688 53.6875 212.75 56.125C210.812 58.5 208.75 60.8125 206.562 63.0625C204.375 65.25 202.219 67.125 200.094 68.6875C198.031 70.25 196.344 71.0625 195.031 71.125C193.969 71.1875 192.906 71 191.844 70.5625C190.844 70.1875 189.906 69.6562 189.031 68.9688C188.219 68.2188 187.531 67.375 186.969 66.4375C186.406 65.4375 186.094 64.4062 186.031 63.3438C185.844 61.7812 185.844 59.6562 186.031 56.9688C186.219 54.2188 186.562 51.4375 187.062 48.625C187.562 45.75 188.188 43.0312 188.938 40.4688C189.75 37.9062 190.656 36 191.656 34.75ZM225.957 66.8125C227.895 66.8125 230.02 66.0625 232.332 64.5625C234.707 63 236.989 61.1875 239.176 59.125C241.426 57.0625 243.457 54.9688 245.27 52.8438C247.145 50.6562 248.551 48.9062 249.489 47.5938C250.051 46.7812 250.582 46.3125 251.082 46.1875C251.582 46 251.957 46.0625 252.207 46.375C252.457 46.6875 252.551 47.1875 252.489 47.875C252.426 48.5 252.145 49.2188 251.645 50.0312C251.207 50.7812 250.457 51.875 249.395 53.3125C248.395 54.6875 247.176 56.2188 245.739 57.9062C244.364 59.5312 242.77 61.2188 240.957 62.9688C239.207 64.6562 237.364 66.2188 235.426 67.6562C233.489 69.0312 231.489 70.1562 229.426 71.0312C227.364 71.9688 225.332 72.4375 223.332 72.4375C220.582 72.4375 218.27 71.9062 216.395 70.8438C214.582 69.8438 213.114 68.5312 211.989 66.9062C210.926 65.2812 210.176 63.5 209.739 61.5625C209.301 59.5625 209.082 57.5938 209.082 55.6562C209.082 53.7188 209.52 51.3125 210.395 48.4375C211.27 45.5625 212.551 42.8125 214.239 40.1875C215.989 37.5 218.176 35.2188 220.801 33.3438C223.426 31.4062 226.52 30.4375 230.082 30.4375C232.082 30.4375 233.77 31.125 235.145 32.5C236.582 33.875 237.27 35.75 237.207 38.125C237.207 39.25 237.02 40.375 236.645 41.5C236.27 42.5625 235.77 43.5312 235.145 44.4062C234.52 45.2188 233.77 45.875 232.895 46.375C232.082 46.875 231.176 47.125 230.176 47.125C229.364 47.125 228.739 46.8438 228.301 46.2812C227.926 45.6562 227.676 44.9688 227.551 44.2188C227.489 43.4062 227.489 42.625 227.551 41.875C227.676 41.125 227.801 40.625 227.926 40.375C228.239 39.9375 228.582 39.625 228.957 39.4375C229.332 39.25 229.77 39.0312 230.27 38.7812C230.645 38.5938 230.926 38.3125 231.114 37.9375C231.364 37.5625 231.489 37.1562 231.489 36.7188C231.489 36.2812 231.364 35.9062 231.114 35.5938C230.864 35.2812 230.457 35.125 229.895 35.125C229.332 35.125 228.301 35.5938 226.801 36.5312C225.364 37.4062 223.864 38.75 222.301 40.5625C220.801 42.3125 219.457 44.5312 218.27 47.2188C217.082 49.9062 216.457 53.0312 216.395 56.5938C216.332 58.6562 216.614 60.3438 217.239 61.6562C217.864 62.9688 218.645 64 219.582 64.75C220.52 65.5 221.551 66.0312 222.676 66.3438C223.801 66.6562 224.895 66.8125 225.957 66.8125ZM292.696 51.3438C291.821 52.5938 290.696 54.1562 289.321 56.0312C287.946 57.8438 286.508 59.6875 285.008 61.5625C283.571 63.375 282.133 65.0625 280.696 66.625C279.321 68.125 278.165 69.1875 277.227 69.8125C276.602 70.1875 275.883 70.5 275.071 70.75C274.258 71 273.415 71.1562 272.54 71.2188C271.727 71.2812 270.946 71.2188 270.196 71.0312C269.446 70.9062 268.79 70.6562 268.227 70.2812C267.665 69.8438 267.196 69.2188 266.821 68.4062C266.508 67.7188 266.196 66.8125 265.883 65.6875C265.633 64.5625 265.54 63.1562 265.602 61.4688C264.102 63.9688 262.446 65.9062 260.633 67.2812C258.821 68.5938 257.102 69.5625 255.477 70.1875C253.602 70.875 251.727 71.2812 249.852 71.4062C248.977 71.4062 248.04 71.0938 247.04 70.4688C246.04 69.9062 245.196 69 244.508 67.75C243.821 66.4375 243.383 64.7812 243.196 62.7812C243.008 60.7188 243.258 58.2812 243.946 55.4688C244.821 51.6562 246.196 48.1875 248.071 45.0625C250.008 41.9375 252.102 39.2812 254.352 37.0938C256.602 34.8438 258.821 33.1562 261.008 32.0312C263.196 30.9062 265.008 30.4062 266.446 30.5312C268.133 30.8438 269.508 31.3438 270.571 32.0312C271.446 32.6562 272.008 33.5938 272.258 34.8438C272.571 36.0312 272.071 37.625 270.758 39.625C271.633 39.4375 272.352 39.3125 272.915 39.25C273.54 39.1875 274.008 39.1562 274.321 39.1562C274.696 39.1562 274.946 39.1875 275.071 39.25C275.133 39.375 275.165 39.6562 275.165 40.0938C275.165 40.4688 275.071 41.1875 274.883 42.25C274.696 43.3125 274.415 44.75 274.04 46.5625C273.665 48.375 273.165 50.7188 272.54 53.5938C272.415 54.1562 272.29 54.6875 272.165 55.1875C272.102 55.625 272.008 56.0938 271.883 56.5938C271.821 57.0312 271.727 57.5625 271.602 58.1875C271.477 58.8125 271.321 59.5938 271.133 60.5312C271.071 61.0938 271.04 61.7188 271.04 62.4062C271.102 63.0312 271.227 63.625 271.415 64.1875C271.602 64.75 271.883 65.2188 272.258 65.5938C272.696 65.9062 273.29 66.0625 274.04 66.0625C274.665 66.0625 275.477 65.6875 276.477 64.9375C277.477 64.125 278.54 63.125 279.665 61.9375C280.79 60.6875 281.946 59.3438 283.133 57.9062C284.383 56.4062 285.54 54.9688 286.602 53.5938C287.665 52.2188 288.602 51 289.415 49.9375C290.29 48.875 290.915 48.0938 291.29 47.5938C291.79 47.0312 292.29 46.7188 292.79 46.6562C293.29 46.5312 293.665 46.6562 293.915 47.0312C294.165 47.4062 294.196 47.9688 294.008 48.7188C293.883 49.4688 293.446 50.3438 292.696 51.3438ZM265.227 55.4688C265.54 54.2188 265.915 52.75 266.352 51.0625C266.79 49.375 267.165 47.75 267.477 46.1875C267.79 44.625 268.008 43.3438 268.133 42.3438C268.321 41.2812 268.29 40.7812 268.04 40.8438C267.727 40.9062 267.383 41 267.008 41.125C266.696 41.25 266.29 41.3438 265.79 41.4062C265.29 41.4688 264.79 41.5625 264.29 41.6875C264.79 40.6875 265.071 39.875 265.133 39.25C265.258 38.5625 265.29 38.0312 265.227 37.6562C265.165 37.2188 265.04 36.875 264.852 36.625C264.165 36.0625 262.946 36.5312 261.196 38.0312C259.508 39.4688 257.54 42.1562 255.29 46.0938C254.352 47.7188 253.602 49.4688 253.04 51.3438C252.477 53.1562 252.071 54.875 251.821 56.5C251.633 58.125 251.602 59.5625 251.727 60.8125C251.852 62 252.102 62.7812 252.477 63.1562C253.165 63.8438 253.946 64.1875 254.821 64.1875C255.696 64.125 256.571 63.875 257.446 63.4375C258.383 62.9375 259.29 62.3125 260.165 61.5625C261.102 60.8125 261.915 60.0312 262.602 59.2188C263.352 58.4062 263.946 57.6562 264.383 56.9688C264.883 56.2812 265.165 55.7812 265.227 55.4688ZM320.716 46.2812C320.966 45.9062 321.278 45.6875 321.653 45.625C322.091 45.5 322.434 45.5312 322.684 45.7188C322.934 45.9062 323.059 46.2188 323.059 46.6562C323.122 47.0938 322.966 47.6875 322.591 48.4375C321.341 50.8125 319.684 53.375 317.622 56.125C315.622 58.875 313.497 61.4688 311.247 63.9062C308.997 66.2812 306.809 68.25 304.684 69.8125C302.559 71.375 300.778 72.1562 299.341 72.1562C297.278 72.1562 295.559 71.75 294.184 70.9375C292.809 70.125 291.716 69.125 290.903 67.9375C290.153 66.75 289.622 65.4688 289.309 64.0938C288.997 62.6562 288.903 61.3438 289.028 60.1562C289.091 59.1562 289.309 57.375 289.684 54.8125C290.059 52.1875 290.559 49.1875 291.184 45.8125C291.809 42.375 292.497 38.7188 293.247 34.8438C294.059 30.9062 294.903 27.125 295.778 23.5C294.716 23.625 293.653 23.75 292.591 23.875C291.528 24 290.559 24.0625 289.684 24.0625C287.684 24.0625 285.809 23.8438 284.059 23.4062C282.247 22.9062 280.903 22.4375 280.028 22C279.528 21.75 279.309 21.4062 279.372 20.9688C279.434 20.4688 279.622 20 279.934 19.5625C280.247 19.0625 280.653 18.6562 281.153 18.3438C281.591 17.9688 281.997 17.7812 282.372 17.7812C283.559 17.9062 284.841 18.0312 286.216 18.1562C287.591 18.2188 289.091 18.2188 290.716 18.1562C291.903 18.0938 293.028 18 294.091 17.875C295.216 17.75 296.309 17.5938 297.372 17.4062C298.184 14.4062 298.966 11.8125 299.716 9.625C300.528 7.375 301.247 5.8125 301.872 4.9375C302.059 4.625 302.466 4.375 303.091 4.1875C303.778 3.9375 304.497 3.78125 305.247 3.71875C305.997 3.59375 306.716 3.59375 307.403 3.71875C308.091 3.78125 308.591 4 308.903 4.375C309.216 4.875 309.341 6.15625 309.278 8.21875C309.216 10.2812 308.872 12.9062 308.247 16.0938C310.872 16.0938 313.184 16.25 315.184 16.5625C317.247 16.8125 318.997 17.125 320.434 17.5C321.872 17.8125 323.028 18.1562 323.903 18.5312C324.778 18.8438 325.434 19.0625 325.872 19.1875C326.309 19.3125 326.528 19.625 326.528 20.125C326.591 20.625 326.497 21.1562 326.247 21.7188C326.059 22.2188 325.716 22.6562 325.216 23.0312C324.716 23.4062 324.153 23.5312 323.528 23.4062C322.903 23.3438 322.184 23.2188 321.372 23.0312C320.622 22.8438 319.684 22.6875 318.559 22.5625C317.497 22.4375 316.216 22.3125 314.716 22.1875C313.216 22.0625 311.466 22 309.466 22C309.091 22 308.653 22.0312 308.153 22.0938C307.716 22.0938 307.247 22.0938 306.747 22.0938C306.497 23.0938 306.247 24.0938 305.997 25.0938C305.809 26.0312 305.528 27.0312 305.153 28.0938C304.341 30.5938 303.403 33.3125 302.341 36.25C301.403 38.8125 300.278 41.75 298.966 45.0625C297.653 48.375 296.184 51.9062 294.559 55.6562C294.184 58.3438 294.216 60.4062 294.653 61.8438C295.153 63.2188 295.747 64.2188 296.434 64.8438C297.247 65.5312 298.247 65.9062 299.434 65.9688C300.372 66.0938 301.497 65.7812 302.809 65.0312C304.184 64.2188 305.591 63.1562 307.028 61.8438C308.466 60.5312 309.903 59.0938 311.341 57.5312C312.841 55.9688 314.216 54.4375 315.466 52.9375C316.716 51.4375 317.809 50.0938 318.747 48.9062C319.684 47.6562 320.341 46.7812 320.716 46.2812Z" fill="#1E0E62"/>
</svg>
